# xmcd
# 
# Track frame offsets:
#     150
#     48352
#     65095
#     102685
#     135795
#     158472
#     184340
# 
# Disc length: 2901
# 
# Revision: 2
# Processed by: cddbd v1.5.2PL0 Copyright (c) Steve Scherf et al.
# Submitted via: fre:ac v1.0.31
# 
DISCID=5a0b5307
DTITLE=Weather Report - Mysterious Traveller
DYEAR=1974
DGENRE=Jazz
TTITLE0=Nubian Sundance
TTITLE1=American Tango
TTITLE2=Cucumber Slumber
TTITLE3=Mysterious Traveller
TTITLE4=Blackthorn Rose
TTITLE5=Scarlet Woman
TTITLE6=Jungle Book
EXTD=YEAR: 1974
EXTT0=
EXTT1=
EXTT2=
EXTT3=
EXTT4=
EXTT5=
EXTT6=
PLAYORDER=
